<?xml version="1.0" encoding="utf-8"?>
<!-- Generator: Adobe Illustrator 26.1.0, SVG Export Plug-In . SVG Version: 6.00 Build 0)  -->
<svg version="1.1" xmlns="http://www.w3.org/2000/svg" xmlns:xlink="http://www.w3.org/1999/xlink" x="0px" y="0px"
	 viewBox="0 0 3710 3710" style="enable-background:new 0 0 3710 3710;" xml:space="preserve">
<style type="text/css">
	.st0{fill:#FFFFFF;}
	.st1{fill:#F4F7FA;}
	.st2{opacity:0.5;clip-path:url(#SVGID_00000106140647771916344220000007395508573414396061_);}
	.st3{opacity:0.3;}
	.st4{clip-path:url(#SVGID_00000161623949050943971330000001236438529671506600_);}
	.st5{clip-path:url(#SVGID_00000105400885010936602740000010549603798034464898_);}
	.st6{fill:url(#SVGID_00000181796632477082514480000009807420036848986037_);}
	.st7{fill:url(#SVGID_00000096055333284763244450000008091953726984530087_);}
	.st8{fill:url(#SVGID_00000109005511583027378720000017750202049200339376_);}
	.st9{fill:#D8DEE8;}
	.st10{fill:url(#SVGID_00000021801986593639460890000001127898085572326797_);}
	.st11{opacity:0.3;fill:url(#SVGID_00000064313207599183735750000007955215146669328777_);}
	.st12{opacity:0.48;fill:#FFFFFF;}
	.st13{opacity:0.5;fill:#FFFFFF;}
	.st14{fill:url(#SVGID_00000168106760633630351910000000027049023143807153_);}
	.st15{fill:url(#SVGID_00000021835640060027141810000017969377994600231821_);}
	.st16{fill:url(#SVGID_00000145778232130126749210000002391277285727388548_);}
	.st17{fill:url(#SVGID_00000028297078188506349870000000283474622368232347_);}
	.st18{fill:url(#SVGID_00000006676275074263645750000008018446748769673404_);}
	.st19{fill:url(#SVGID_00000010275585456436326690000015705310836227129507_);}
	.st20{fill:url(#SVGID_00000158714472746967704360000008202024791581695367_);}
	.st21{opacity:0.4;fill:url(#SVGID_00000104668690693645850860000015291875357067150996_);}
	.st22{fill:url(#SVGID_00000160154333895496375990000008039513142718184589_);}
	.st23{fill:url(#SVGID_00000074432001192164410610000017710648119456145797_);}
	.st24{fill:url(#SVGID_00000044863098634929385540000001629014744069828504_);}
	.st25{fill:url(#SVGID_00000059305604751621892410000002985512771804797876_);}
	.st26{fill:url(#SVGID_00000008864271228294635980000000770386678509065910_);}
	.st27{fill:url(#SVGID_00000128458224015802530450000001491774057018286779_);}
	.st28{fill:url(#SVGID_00000132077354319315353800000000004033515796067502_);}
	.st29{fill:url(#SVGID_00000076591722971384889150000017700038354775789481_);}
	.st30{opacity:0.3;fill:url(#SVGID_00000042012553750953166940000011414761595922359701_);}
	.st31{fill:url(#SVGID_00000136374310152340430120000005805454433051585969_);}
	.st32{fill:url(#SVGID_00000039105526845849071360000007798752131202305666_);}
	.st33{fill:url(#SVGID_00000158740236573601788260000000540761055371893395_);}
	.st34{fill:url(#SVGID_00000160156869336403307540000016787056475684055424_);}
	.st35{fill:url(#SVGID_00000075868720953458697410000000530484508337020831_);}
	.st36{fill:url(#SVGID_00000093141926928437437140000015240855030085779863_);}
	.st37{fill:url(#SVGID_00000163035083121684093190000017693719131601237664_);}
	.st38{fill:url(#SVGID_00000050632174463603448840000009789061912047018673_);}
	.st39{opacity:0.53;fill:#FFFFFF;}
	.st40{fill:url(#SVGID_00000000928653118874911840000015809030462066596760_);}
</style>
<g id="Background">
	<g>
		<g>
			<rect class="st0" width="3710" height="3710"/>
		</g>
	</g>
</g>
<g id="Illustration">
	<g>
		<path class="st1" d="M1894.37,455.64c-734.97-21.7-1371.6,511.59-1467.79,1211.33c-105.16,765.07,469.69,1483.04,1185.85,1563.71
			c1585.31,178.56,1745.09-656.22,1667.94-1516.9C3222.25,1065.33,2641.48,477.7,1894.37,455.64z"/>
		<g>
			<g>
				<defs>
					<path id="SVGID_1_" d="M1879.66,2820.29c178.95,21.47,409.98,23.28,639.83-50.9c58.66-18.93,421.03-135.87,398.07-297.48
						c-8.09-56.93-57.16-71.32-69.3-147.25c-14.39-89.97,45.3-127.34,95.55-231.75c29.98-62.3,117.73-244.63,15.9-362.59
						c-60.86-70.49-186.66-114.81-287.57-102.98c-148.01,17.36-213.47,152.12-320.27,382.05
						c-94.68,203.83-82.39,257.88-153.12,403.46C2146.24,2520.9,2053.83,2667.38,1879.66,2820.29z"/>
				</defs>
				
					<linearGradient id="SVGID_00000102531746188106033280000009839004979449615263_" gradientUnits="userSpaceOnUse" x1="2791.6064" y1="1609.6796" x2="2374.2327" y2="2730.0002">
					<stop  offset="0" style="stop-color:#FFC444"/>
					<stop  offset="0.9964" style="stop-color:#F36F56"/>
				</linearGradient>
				
					<use xlink:href="#SVGID_1_"  style="overflow:visible;fill:url(#SVGID_00000102531746188106033280000009839004979449615263_);"/>
				<clipPath id="SVGID_00000167366298502825796260000012822490701045470603_">
					<use xlink:href="#SVGID_1_"  style="overflow:visible;"/>
				</clipPath>
				<g style="opacity:0.5;clip-path:url(#SVGID_00000167366298502825796260000012822490701045470603_);">
					<g>
						<path class="st0" d="M1854.05,2827.41c-58.1,18.36-117.63,31.35-178.51,38.95c-186.51,23.27-378.17-2.9-569.63-77.79
							l3.36-8.59c190.02,74.32,380.16,100.3,565.13,77.23c661.86-82.57,978.54-787.86,1059.83-1002.06
							c46.1-121.47,55.59-260.68,28.22-413.77l9.08-1.62c27.67,154.75,18.02,295.61-28.67,418.66
							c-66.95,176.4-189.83,432.02-395.07,647.99C2198.66,2663.34,2033.17,2770.83,1854.05,2827.41z"/>
					</g>
					<g>
						<path class="st0" d="M2572.5,2203.43l-2.23-3.5c-1.73-2.72-172-274.61-68.36-541.47l8.6,3.34
							c-95.6,246.16,45.93,497.06,65.38,529.64c406.51-203.82,434.64-485.96,433.54-567.77c-0.03-2.27-0.02-3.69,0.05-4.2l9.16,1.03
							c-0.03,0.48-0.01,1.5,0.01,3.05c1.12,83.43-27.46,371.68-442.44,578.04L2572.5,2203.43z"/>
					</g>
					<g>
						<path class="st0" d="M2781.02,2508.25c-96.63,30.52-240.52,47.11-434.36-4.16l-2.38-0.63l-0.8-2.33
							c-0.79-2.3-78.34-233.82-22.06-530.25l56.7-298.66l9.06,1.72l-56.7,298.66c-52.79,278.07,13.05,498.35,20.97,523.22
							c227.28,59.58,384.5,24.87,476.48-14.82c99.68-43.02,145.93-100.73,146.38-101.3l7.24,5.71
							c-1.92,2.43-48.17,60.12-149.97,104.06C2816.48,2495.98,2799.62,2502.38,2781.02,2508.25z"/>
					</g>
				</g>
			</g>
		</g>
		<g>
			<g>
				<g class="st3">
					<defs>
						<path id="SVGID_00000162311341102853673930000004206616769525919873_" class="st3" d="M2115.19,2742.71
							c-85.78-100.01-196-259.28-230.67-471.31c-45.47-278.07,78.95-402.58,116.24-860.96c23.58-289.83,37.11-492.33-96.86-615.98
							c-104.99-96.9-287.99-133.78-408.67-67.64c-100.34,54.99-169.35,187.64-196.55,284.72c-22.17,79.12-17.75,138.8-68.81,176.2
							c-52.18,38.22-100.76,8.1-148.63,35.4c-97.09,55.38-68.42,276.87-63.78,312.67c51.55,398.2,380.65,698.73,525.79,828.1
							C1663.24,2470.87,1851.04,2616.43,2115.19,2742.71z"/>
					</defs>
					
						<linearGradient id="SVGID_00000155106836522049327270000002862870459729721001_" gradientUnits="userSpaceOnUse" x1="2091.9221" y1="512.5875" x2="1140.8628" y2="3265.6545">
						<stop  offset="0" style="stop-color:#FF9085"/>
						<stop  offset="1" style="stop-color:#FB6FBB"/>
					</linearGradient>
					
						<use xlink:href="#SVGID_00000162311341102853673930000004206616769525919873_"  style="overflow:visible;fill:url(#SVGID_00000155106836522049327270000002862870459729721001_);"/>
					<clipPath id="SVGID_00000137840887949873574340000004356921620978333873_">
						<use xlink:href="#SVGID_00000162311341102853673930000004206616769525919873_"  style="overflow:visible;"/>
					</clipPath>
					<g style="clip-path:url(#SVGID_00000137840887949873574340000004356921620978333873_);">
						<path class="st0" d="M2215.35,2828.64c-159.89-81.49-295.23-172.7-402.28-271.09c-158.68-145.85-250.26-303.63-272.19-468.96
							c-17.14-129.22,9.05-264.1,42.21-434.88c27.49-141.54,59.7-239.25,88.11-325.46c36.71-111.38,65.71-199.35,66.52-330.85
							c0.82-133.65-28.51-269.85-87.19-404.83l12.22-5.31c59.43,136.69,89.13,274.7,88.3,410.22
							c-0.82,133.59-30.11,222.44-67.19,334.93c-28.29,85.83-60.36,183.12-87.68,323.82c-34.22,176.22-58.95,303.54-42.09,430.6
							c21.51,162.15,111.68,317.21,268,460.9c106.16,97.58,240.51,188.09,399.31,269.03L2215.35,2828.64z"/>
						<path class="st0" d="M1607.23,1559.38l-1.36-7.4c-48.73-265.75-168.91-441.74-261.16-542.58
							c-99.79-109.09-188.89-155.89-189.78-156.35l6.13-11.83c0.91,0.47,92.11,48.37,193.48,159.19
							c92.54,101.16,212.83,276.92,263.02,541.54c24.34-8.86,107.53-42.39,194.97-114.9c95.37-79.09,215.53-222.17,246.36-454.64
							l13.21,1.75c-31.44,237.01-154.12,382.88-251.51,463.51c-105.52,87.37-205.19,119.16-206.19,119.47L1607.23,1559.38z"/>
						<path class="st0" d="M1546.88,1941.82l-4.47-1.86c-122.19-50.76-249.48-211.19-378.31-476.84
							c-95.62-197.16-156.43-381.96-157.04-383.8l12.67-4.14c2.38,7.29,240.57,726.69,523.38,850.6
							c19.01-21.7,119.73-134.58,241.05-230.24c56.96-44.91,146.18-78.31,265.19-99.27c88.29-15.55,161.01-18.05,161.74-18.07
							l0.43,13.32c-2.85,0.09-287.16,10.46-419.09,114.49c-133.18,105.01-241.31,230.88-242.39,232.14L1546.88,1941.82z"/>
						<path class="st0" d="M1777.22,2519.45l-12.94-2.98c-1.38-0.32-140.96-33.01-318.62-117.45
							c-164.03-77.96-395.17-217.29-564.8-438.33l-326.84-425.86l10.57-8.11l326.84,425.86
							c167.95,218.83,397.03,356.94,559.64,434.26c145.49,69.19,265.15,103.38,303.39,113.42c-55.12-137.1-26.25-276.4,83.92-403.66
							c85.18-98.39,190.17-155.78,191.22-156.35l6.34,11.72c-1.03,0.56-104.15,56.97-187.72,153.62
							c-111.26,128.67-136.95,263.82-76.35,401.71L1777.22,2519.45z"/>
					</g>
				</g>
			</g>
			<g>
				<g class="st3">
					<defs>
						<path id="SVGID_00000092422925929935344790000015401482696990990259_" class="st3" d="M1816.49,2189.68
							c-181.11,45.12-418.26,76.76-664,30.17c-62.71-11.89-450.13-85.34-447.37-254.36c0.97-59.54,49.54-80.65,52.23-160.23
							c3.19-94.3-62.96-125.01-128.05-225.82c-38.84-60.15-152.51-236.19-63.07-370.53c53.45-80.28,177-142.03,282.21-142.88
							c154.32-1.24,238.95,128.79,378.33,351.29c123.56,197.23,117.89,254.36,209.34,394.83
							C1503.98,1916.41,1617.82,2055.01,1816.49,2189.68z"/>
					</defs>
					<use xlink:href="#SVGID_00000092422925929935344790000015401482696990990259_"  style="overflow:visible;fill:#C1CAD4;"/>
					<clipPath id="SVGID_00000076602420856077218990000007467612263151068082_">
						<use xlink:href="#SVGID_00000092422925929935344790000015401482696990990259_"  style="overflow:visible;"/>
					</clipPath>
					<g style="clip-path:url(#SVGID_00000076602420856077218990000007467612263151068082_);">
						<path class="st0" d="M2031.46,2214.14c-259.98,0.01-508.45-95.54-738.61-283.99c-239.17-195.83-398.65-443.05-490.32-615.96
							c-64.14-120.98-92.34-265.07-83.82-428.28l16.4,0.86c-8.37,160.2,19.2,301.42,81.92,419.74
							c90.97,171.57,249.16,416.84,486.22,610.94c227.14,185.98,472.15,280.27,728.23,280.27c0.23,0,0.46,0,0.69,0
							c192.46-0.13,383.94-51.19,569.1-151.78l7.83,14.42c-187.59,101.9-381.7,153.64-576.92,153.77
							C2031.95,2214.14,2031.69,2214.14,2031.46,2214.14z"/>
						<path class="st0" d="M1026.84,1649.4l-6.96-2.44c-454.91-159.22-521.75-453.42-531.4-539.8c-0.16-1.41-0.26-2.39-0.35-2.9
							l15.99-3.69c0.14,0.57,0.38,2.18,0.67,4.76c9.33,83.52,73.95,367.01,513.37,523.6c19.51-45.6,123.9-313.2-2.23-546.71
							l14.44-7.8c141.72,262.36,1.07,565.26-0.36,568.29L1026.84,1649.4z"/>
						<path class="st0" d="M964.12,1998.71c-68.73,0-125.36-10.2-169.36-22.98c-111.09-32.27-166.65-86.17-168.97-88.45l11.52-11.69
							c0.54,0.53,55.57,53.69,163.05,84.68c98.71,28.46,263,43.47,486.49-45.67c6.05-33.87,41.91-264.21-46.13-536.79l-96.76-299.57
							l15.62-5.05l96.76,299.57c96.31,298.19,46.29,546.97,45.78,549.45l-0.9,4.29l-4.07,1.64
							C1166.11,1981,1054.63,1998.71,964.12,1998.71z"/>
					</g>
				</g>
			</g>
		</g>
		<g>
			<g>
				<g>
					
						<linearGradient id="SVGID_00000085942211391221116440000014020852600327722916_" gradientUnits="userSpaceOnUse" x1="1654.3368" y1="2960.2454" x2="1459.1862" y2="3042.2085">
						<stop  offset="0" style="stop-color:#40447E"/>
						<stop  offset="0.9964" style="stop-color:#3C3B6B"/>
					</linearGradient>
					<path style="fill:url(#SVGID_00000085942211391221116440000014020852600327722916_);" d="M3258.94,2853.46l-2778.03-24.2v71.59
						c0,19.43,12.12,35.95,28.53,38.9l785.54,140.97c9.32,1.67,18.78,2.12,28.18,1.32l1905.59-160.73
						c17.01-1.43,30.19-18.01,30.19-37.97V2853.46z"/>
					
						<linearGradient id="SVGID_00000051376877866047724020000003020624339167132574_" gradientUnits="userSpaceOnUse" x1="1393.7511" y1="2100.1511" x2="1181.9624" y2="2189.1023">
						<stop  offset="0" style="stop-color:#40447E"/>
						<stop  offset="0.9964" style="stop-color:#3C3B6B"/>
					</linearGradient>
					<path style="fill:url(#SVGID_00000051376877866047724020000003020624339167132574_);" d="M2364.65,2737.41L511.48,2868.37
						c-33.16,2.34-60.12-22.56-60.12-55.62v-1324.8c0-33.07,26.96-59.87,60.12-59.87h1853.17c27.32,0,49.41,24.23,49.41,54.12
						v1197.59C2414.06,2709.69,2391.97,2735.48,2364.65,2737.41z"/>
					
						<linearGradient id="SVGID_00000163074378270993945940000014631482521075899273_" gradientUnits="userSpaceOnUse" x1="480.9074" y1="2148.301" x2="2443.6116" y2="2148.301">
						<stop  offset="0" style="stop-color:#40447E"/>
						<stop  offset="0.9964" style="stop-color:#3C3B6B"/>
					</linearGradient>
					<path style="fill:url(#SVGID_00000163074378270993945940000014631482521075899273_);" d="M2394.2,2737.41L541.03,2868.37
						c-33.16,2.34-60.12-22.56-60.12-55.62v-1324.8c0-33.07,26.96-59.87,60.12-59.87H2394.2c27.32,0,49.41,24.23,49.41,54.12
						v1197.59C2443.61,2709.69,2421.52,2735.48,2394.2,2737.41z"/>
					<path class="st9" d="M2336.47,2652.98L610.44,2766.74c-26.99,1.78-48.92-18.66-48.92-45.65V1561.22
						c0-26.99,21.93-48.97,48.92-49.08l1726.04-7.14c22.54-0.09,40.77,19.76,40.77,44.35v1056.43
						C2377.24,2630.36,2359.01,2651.49,2336.47,2652.98z"/>
					
						<linearGradient id="SVGID_00000021088900385702257060000001976309313530851501_" gradientUnits="userSpaceOnUse" x1="480.9074" y1="2874.1016" x2="3258.937" y2="2874.1016">
						<stop  offset="0" style="stop-color:#40447E"/>
						<stop  offset="0.9964" style="stop-color:#3C3B6B"/>
					</linearGradient>
					<path style="fill:url(#SVGID_00000021088900385702257060000001976309313530851501_);" d="M2347.96,2731.47L480.91,2869.32
						l814.07,146.09c9.32,1.67,18.78,2.12,28.18,1.32l1935.78-163.27l-881.28-121.05
						C2367.81,2731.05,2357.87,2730.74,2347.96,2731.47z"/>
					
						<linearGradient id="SVGID_00000049188169667546440350000014537418407947835803_" gradientUnits="userSpaceOnUse" x1="753.3399" y1="2851.3398" x2="2788.7847" y2="2851.3398">
						<stop  offset="0" style="stop-color:#40447E"/>
						<stop  offset="0.9964" style="stop-color:#3C3B6B"/>
					</linearGradient>
					<polygon style="opacity:0.3;fill:url(#SVGID_00000049188169667546440350000014537418407947835803_);" points="753.34,2872.79 
						2307.72,2756.31 2788.78,2821.86 1247.8,2946.37 					"/>
					<path class="st12" d="M1947.71,2374.06c-142.86-76.87-255.2,20.53-363.6-75.57c-65.72-58.26-33.46-101.71-114.33-188.77
						c-89.57-96.43-147.89-64.02-237.91-150.81c-113.82-109.74-56.9-195.12-154.94-273.91c-118.94-95.58-247.21-7.11-360.44-98.78
						c-48.83-39.54-75.63-97.02-89.62-158.15H516.09c-19.41,0-35.18,15.73-35.18,35.14v1373.27c0,19.41,15.77,34.03,35.18,32.65
						l1888.69-134.06c9.27-0.66,17.49-6.07,22.76-13.92c-138.26-5.04-223.2-51.39-277.49-99.3
						C2043.83,2528.12,2062.25,2435.69,1947.71,2374.06z"/>
				</g>
			</g>
			<g>
				<path class="st13" d="M1561.33,2496.53c-73.97,1.33-147.65-15.74-212.95-49.57c-70.5-36.48-129.55-91.15-170.49-158.1
					c-39.67-64.91-60.71-139.36-60.71-215.09c0-237.53,201.77-425.51,444.15-419.2c236.38,6.16,424.41,195.71,424.41,422.69
					S1797.71,2492.27,1561.33,2496.53z"/>
				<path class="st0" d="M1949.03,2077.11c0,207.66-171.63,378.78-387.7,382.25c-69.93,1.12-136.07-15.41-193.93-45.51
					c-64.16-33.34-117.93-83.33-155.05-144.2c-35-57.39-55.12-124.29-55.12-195.73c0-216.44,183.03-387.52,404.1-382.19
					C1777.4,1696.95,1949.03,1869.45,1949.03,2077.11z"/>
				
					<linearGradient id="SVGID_00000073693244783111222890000014648232507912172692_" gradientUnits="userSpaceOnUse" x1="1668.1616" y1="1870.8499" x2="1163.2638" y2="2933.1333">
					<stop  offset="0" style="stop-color:#444B8C"/>
					<stop  offset="0.9964" style="stop-color:#26264F"/>
				</linearGradient>
				<path style="fill:url(#SVGID_00000073693244783111222890000014648232507912172692_);" d="M1809.16,2015.6l-0.11,110.29
					c-0.04,10.57-4.29,20.66-11.92,28.11l-96.05,94.18c-7.74,7.57-18.26,11.88-29.2,11.86l-145.37,0.01c0,0-99.84,96.4-159.1,153.8
					c-64.16-33.34-117.93-83.33-155.05-144.2c59.82-57.42,162.25-156.08,162.25-156.08l-0.59-142.98
					c-0.04-10.85,4.45-21.24,12.46-28.81l99.21-94.12c7.88-7.45,18.53-11.52,29.58-11.34l115.11,1.97
					c9.51,0.16,18.09,5.89,21.74,14.49c3.61,8.64,1.59,18.45-5.12,24.9l-109.68,105.09c-9.76,9.33-9.8,24.68-0.04,34.2l39.26,38.39
					l10.82,10.56l39.06,38.22c9.66,9.43,25.32,9.46,34.96,0.09l108.27-105.06c6.63-6.45,16.59-8.31,25.28-4.72
					C1803.55,1998.06,1809.19,2006.39,1809.16,2015.6z"/>
			</g>
		</g>
		<g>
			
				<linearGradient id="SVGID_00000008858615654296247190000017769522424464058771_" gradientUnits="userSpaceOnUse" x1="1293.0969" y1="2250.8652" x2="1256.6696" y2="2889.3003">
				<stop  offset="0" style="stop-color:#AA80F9"/>
				<stop  offset="0.9964" style="stop-color:#6165D7"/>
			</linearGradient>
			<path style="fill:url(#SVGID_00000008858615654296247190000017769522424464058771_);" d="M1394.99,2537.2
				c30.08-16.67,21.27-111.29-19.53-177.77c-57.95-94.4-184.94-139.46-210.98-111.35c-26.64,28.77,50.05,136.78,62.51,154.33
				C1272.19,2466.06,1359.41,2556.92,1394.99,2537.2z"/>
			
				<linearGradient id="SVGID_00000120555319362994917920000018202087502902146968_" gradientUnits="userSpaceOnUse" x1="1339.5361" y1="3207.8503" x2="1430.5917" y2="3207.8503" gradientTransform="matrix(-0.9642 0.2651 0.2651 0.9642 2192.8501 -308.9189)">
				<stop  offset="0" style="stop-color:#444B8C"/>
				<stop  offset="0.9964" style="stop-color:#26264F"/>
			</linearGradient>
			<path style="fill:url(#SVGID_00000120555319362994917920000018202087502902146968_);" d="M1667.06,3140.22
				c-5.62,6.2-6.9,17.62-2.01,23.25c4.8,5.53,12.02,1.38,32.5,1.99c21.93,0.66,27.66,5.83,42.56,1.72c6.02-1.66,16.66-5.7,16.45-10
				c-0.14-3.02-5.56-4.58-23.64-10.64c-25.67-8.6-25.55-9.07-31-9.97C1688.22,3134.31,1674.48,3132.03,1667.06,3140.22z"/>
			
				<linearGradient id="SVGID_00000118393336455377192550000000871653179789105280_" gradientUnits="userSpaceOnUse" x1="1165.7766" y1="3213.3279" x2="1204.1742" y2="3133.8538" gradientTransform="matrix(-0.9802 0.1979 0.1979 0.9802 2204.0603 -227.1835)">
				<stop  offset="0" style="stop-color:#FFC444"/>
				<stop  offset="0.9964" style="stop-color:#F36F56"/>
			</linearGradient>
			<path style="fill:url(#SVGID_00000118393336455377192550000000871653179789105280_);" d="M1681.11,3104.45l11,36.59
				c-0.83,1.96-12.01,8.51-21.61,4.36l-16.34-35.51L1681.11,3104.45z"/>
			
				<linearGradient id="SVGID_00000138533847403092697840000012791953441885858704_" gradientUnits="userSpaceOnUse" x1="1482.1847" y1="3201.9807" x2="1573.24" y2="3201.9807" gradientTransform="matrix(-0.9642 0.2651 0.2651 0.9642 2192.8501 -308.9189)">
				<stop  offset="0" style="stop-color:#444B8C"/>
				<stop  offset="0.9964" style="stop-color:#26264F"/>
			</linearGradient>
			<path style="fill:url(#SVGID_00000138533847403092697840000012791953441885858704_);" d="M1527.96,3172.38
				c-5.62,6.2-6.9,17.63-2.01,23.25c4.8,5.53,12.02,1.38,32.5,1.99c21.93,0.66,27.66,5.83,42.56,1.72c6.02-1.66,16.66-5.7,16.45-10
				c-0.14-3.02-5.56-4.58-23.64-10.64c-25.67-8.6-25.55-9.07-31-9.97C1549.12,3166.47,1535.38,3164.19,1527.96,3172.38z"/>
			
				<linearGradient id="SVGID_00000013179629241888523680000009476027318700438144_" gradientUnits="userSpaceOnUse" x1="1308.4902" y1="3217.3203" x2="1346.8876" y2="3137.8469" gradientTransform="matrix(-0.9802 0.1979 0.1979 0.9802 2204.0603 -227.1835)">
				<stop  offset="0" style="stop-color:#FFC444"/>
				<stop  offset="0.9964" style="stop-color:#F36F56"/>
			</linearGradient>
			<path style="fill:url(#SVGID_00000013179629241888523680000009476027318700438144_);" d="M1542.01,3136.61l11,36.59
				c-0.83,1.96-12.01,8.51-21.61,4.36l-16.34-35.51L1542.01,3136.61z"/>
			
				<linearGradient id="SVGID_00000039843967539012198380000018040303733652170635_" gradientUnits="userSpaceOnUse" x1="1133.2966" y1="2241.7473" x2="1096.8693" y2="2880.1819">
				<stop  offset="0" style="stop-color:#AA80F9"/>
				<stop  offset="0.9964" style="stop-color:#6165D7"/>
			</linearGradient>
			<path style="fill:url(#SVGID_00000039843967539012198380000018040303733652170635_);" d="M923.22,2254.2
				c34.9-11.89,88.23-25.71,153.93-25.71c73.96,0.01,133.36,0.01,174.37,34.97c99.54,84.84-11.87,288.05,45.2,438.53
				c6.25,16.48,24.44,68.74,8.62,125.1c-2.92,10.39-8.92,19.39-19.19,34.63c-60.29,89.45-229.65,96.78-307.23,19.23
				c-41-40.99-77.87-33.48-78.85-80.25C896.17,2616.09,924.82,2431.95,923.22,2254.2z"/>
			
				<linearGradient id="SVGID_00000018234606083163967090000006259116704588577159_" gradientUnits="userSpaceOnUse" x1="948.9404" y1="2747.76" x2="1168.6698" y2="2469.5312">
				<stop  offset="0" style="stop-color:#AA80F9"/>
				<stop  offset="0.9964" style="stop-color:#6165D7"/>
			</linearGradient>
			<path style="opacity:0.4;fill:url(#SVGID_00000018234606083163967090000006259116704588577159_);" d="M966.15,2476.41
				c-14.1-38.6,0.51-82.79-30.93-102.08c-11.52-7.07-25.84-10.06-41.43-9.72c1.87,135.69,4.54,271.24,7.84,412.85
				c1.09,46.77,6.94,49.09,52.28,90.07c52.53,47.49,143.06,63,220.7,47.46c-101.69-62.54-174.24-127.32-163.85-182.84
				c12.1-64.67,130.52-83.76,125.76-129.74C1131.46,2553.68,996.97,2560.8,966.15,2476.41z"/>
			
				<linearGradient id="SVGID_00000042716361050426365060000010167522348615232180_" gradientUnits="userSpaceOnUse" x1="919.7021" y1="2229.5605" x2="883.2747" y2="2867.9966">
				<stop  offset="0" style="stop-color:#AA80F9"/>
				<stop  offset="0.9964" style="stop-color:#6165D7"/>
			</linearGradient>
			<path style="fill:url(#SVGID_00000042716361050426365060000010167522348615232180_);" d="M955.56,2258.38
				c-34.19-23.08-116.55,35.12-162.21,86.36c-21.22,23.81-95.11,106.72-76.75,218.08c2.99,18.15,16.76,103,89.4,144.56
				c65.04,37.22,152.85,27.64,223.22-25.06c9.61-8.53,19.23-17.06,28.85-25.6c9.46-10.22,18.92-20.45,28.38-30.68
				c-14.87-12.37-40.14-30.21-75.62-41.66c-54.07-17.45-89.62,8.44-102.55-8.6c-15.92-20.98,32.55-60.07,45.27-149
				C956.97,2402.79,993.75,2284.16,955.56,2258.38z"/>
			
				<linearGradient id="SVGID_00000155862029773724677340000012919025642597233548_" gradientUnits="userSpaceOnUse" x1="1263.6339" y1="3082.0129" x2="1569.5461" y2="2694.6567">
				<stop  offset="0" style="stop-color:#FF9085"/>
				<stop  offset="1" style="stop-color:#FB6FBB"/>
			</linearGradient>
			<path style="fill:url(#SVGID_00000155862029773724677340000012919025642597233548_);" d="M1011.64,2839.07
				c-22.59,73.52,19.24,43.63,104.43,1.66c89.72-44.2,285.84-107.68,370.35-24.53c62.94,61.93,18.42,159.84,115.79,267.61
				c17.15,18.98,33.41,32.24,43.57,39.94c17.55-7.26,35.1-14.52,52.65-21.78c6.89-40.21,28.57-195.21-68.98-334.03
				c-23.59-33.56-68.45-98-145.23-125.26C1276.64,2568.98,1032.47,2771.26,1011.64,2839.07z"/>
			
				<linearGradient id="SVGID_00000181808713925253337150000004631952507685488051_" gradientUnits="userSpaceOnUse" x1="1445.7875" y1="2724.2461" x2="1090.8713" y2="3117.3843">
				<stop  offset="0" style="stop-color:#FF9085"/>
				<stop  offset="1" style="stop-color:#FB6FBB"/>
			</linearGradient>
			<path style="fill:url(#SVGID_00000181808713925253337150000004631952507685488051_);" d="M928.81,2770.48
				c-14.63,42.23-1.46,90.76,22.44,120.91c53.05,66.93,172.14,59.89,246.53,35.17c90.51-30.07,110.73-84.85,146.32-71.38
				c55.31,20.92,15.96,157.12,115.79,267.62c17.15,18.98,33.41,32.24,43.57,39.94c17.55-7.26,35.1-14.52,52.65-21.79
				c13.25-93.63,3.57-168.65-6.52-216.56c-11.57-54.95-21.94-104.18-60.66-151.65c-48.1-58.98-110.96-79.7-147.03-91.07
				C1189.3,2633.54,966.81,2660.75,928.81,2770.48z"/>
			<g>
				
					<linearGradient id="SVGID_00000047758124961557222600000003708448122040833693_" gradientUnits="userSpaceOnUse" x1="1278.8005" y1="2826.6111" x2="1228.9691" y2="2685.4219">
					<stop  offset="0" style="stop-color:#311944"/>
					<stop  offset="1" style="stop-color:#893976"/>
				</linearGradient>
				<polygon style="fill:url(#SVGID_00000047758124961557222600000003708448122040833693_);" points="1423.58,2656.31 
					1011.64,2650.16 1121.18,2703.02 1424.63,2683.16 				"/>
				
					<linearGradient id="SVGID_00000040545225041134077080000007780226194885097885_" gradientUnits="userSpaceOnUse" x1="1061.1095" y1="2622.0498" x2="1079.381" y2="2748.2893">
					<stop  offset="0" style="stop-color:#311944"/>
					<stop  offset="1" style="stop-color:#893976"/>
				</linearGradient>
				<path style="fill:url(#SVGID_00000040545225041134077080000007780226194885097885_);" d="M997.1,2661.1L997.1,2661.1
					c0,7.71,4.83,14.6,12.07,17.23l131.63,51.6l0.6-35.78l-129.76-44C1004.36,2648.06,997.1,2653.53,997.1,2661.1z"/>
			</g>
			
				<linearGradient id="SVGID_00000173864158204778507410000001111184346569703354_" gradientUnits="userSpaceOnUse" x1="1055.6289" y1="2649.7068" x2="1158.8948" y2="2649.7068">
				<stop  offset="0" style="stop-color:#FFC444"/>
				<stop  offset="0.9964" style="stop-color:#F36F56"/>
			</linearGradient>
			<path style="fill:url(#SVGID_00000173864158204778507410000001111184346569703354_);" d="M1055.91,2644.57
				c-2.53-0.56,12.32-30.14,23.97-26.73c11.65,3.41,68.65,36.45,73.83,50.05c5.18,13.6,5.18,13.6,5.18,13.6s-24.86,1.94-40.28-3.24
				C1103.19,2673.07,1076.47,2649.15,1055.91,2644.57z"/>
			<g>
				<g>
					
						<linearGradient id="SVGID_00000104704434438007979840000018251351799947783849_" gradientUnits="userSpaceOnUse" x1="1423.1505" y1="2633.1062" x2="1325.9976" y2="2495.1492">
						<stop  offset="0" style="stop-color:#444B8C"/>
						<stop  offset="0.9964" style="stop-color:#26264F"/>
					</linearGradient>
					<path style="fill:url(#SVGID_00000104704434438007979840000018251351799947783849_);" d="M1152.33,2443.15l-29.04,264.38
						c-1,9.12,11.77,22.71,20.94,22.28l425.96-26.15c7-0.33,12.83-5.48,14.01-12.39l53.46-255.34c1.6-9.29-15.11-18.89-24.53-18.63
						l-446.38,12.55C1159.3,2430.07,1153.14,2435.74,1152.33,2443.15z"/>
					
						<linearGradient id="SVGID_00000101817573053246884100000013599888017600560798_" gradientUnits="userSpaceOnUse" x1="1236.7937" y1="2861.4229" x2="1449.4083" y2="2429.5498">
						<stop  offset="0" style="stop-color:#311944"/>
						<stop  offset="1" style="stop-color:#893976"/>
					</linearGradient>
					<path style="fill:url(#SVGID_00000101817573053246884100000013599888017600560798_);" d="M1162.06,2450.86l-29.04,264.38
						c-1,9.12,6.39,16.98,15.55,16.55l431.35-20.42c7-0.33,12.83-5.48,14.01-12.39l44.07-256.51c1.6-9.29-5.71-17.72-15.14-17.46
						l-446.38,12.55C1169.03,2437.77,1162.87,2443.45,1162.06,2450.86z"/>
				</g>
				
					<linearGradient id="SVGID_00000089536739706203190320000004874619566392210058_" gradientUnits="userSpaceOnUse" x1="1132.932" y1="2584.2327" x2="1600.0179" y2="2584.2327">
					<stop  offset="0" style="stop-color:#311944"/>
					<stop  offset="1" style="stop-color:#893976"/>
				</linearGradient>
				<path style="opacity:0.3;fill:url(#SVGID_00000089536739706203190320000004874619566392210058_);" d="M1415.35,2649.42
					c-37.66-15.96-24.37-46.41-68.85-84.34c-58.67-50.04-118.48-28.34-139.42-67.13c-6.52-12.08-9.63-30.88,1.72-61.3l-32.32,0.91
					c-7.45,0.21-13.61,5.89-14.42,13.3l-29.04,264.38c-1,9.12,6.39,16.98,15.55,16.55l431.35-20.42c7-0.33,12.83-5.48,14.01-12.39
					l6.08-35.4c-13.09-7.28-28.73-13.91-46.98-17.61C1489.76,2633.14,1458.71,2667.8,1415.35,2649.42z"/>
			</g>
			<g>
				
					<linearGradient id="SVGID_00000129898186425825976750000015825816378914756224_" gradientUnits="userSpaceOnUse" x1="1594.8563" y1="2061.0952" x2="1605.1423" y2="1787.109" gradientTransform="matrix(0.917 0.3988 -0.3988 0.917 399.6047 -184.8945)">
					<stop  offset="0" style="stop-color:#FFC444"/>
					<stop  offset="0.9964" style="stop-color:#F36F56"/>
				</linearGradient>
				<path style="fill:url(#SVGID_00000129898186425825976750000015825816378914756224_);" d="M1084.05,2127.45
					c0.23,27.42-2.83,49.17-5.72,64.06c-3.31,17.06-5.7,21.47-8.75,25.05c-4.59,5.39-11.54,9.9-50.83,19.64
					c-21.38,5.3-24.13,5.16-24.61,7.28c-2.3,10.35,56,45.63,116.23,37.13c36.86-5.2,70.41-26.24,68.35-37.28
					c-2.07-11.12-38.9-5.15-49.87-25.26c-7.63-13.99,0.92-33.85,11.04-50.29C1130.09,2149.41,1093.85,2145.81,1084.05,2127.45z"/>
				<g>
					
						<linearGradient id="SVGID_00000034053285473896178180000009592294784573069231_" gradientUnits="userSpaceOnUse" x1="925.9997" y1="2130.3442" x2="856.2614" y2="1953.2218" gradientTransform="matrix(-0.9687 -0.2485 -0.2485 0.9687 2456.1904 427.3052)">
						<stop  offset="0" style="stop-color:#311944"/>
						<stop  offset="1" style="stop-color:#6B3976"/>
					</linearGradient>
					<path style="fill:url(#SVGID_00000034053285473896178180000009592294784573069231_);" d="M1161.41,2162.31
						c11.33-8.99,16.94-28.38,10.45-43.25c-5.58-12.79-18.32-17.73-25.95-20.69c-22.11-8.57-53.34-6.54-68.81,11.83
						c-9.16,10.89-3.07,40.05-2.27,45.22c0.91,5.84,4.56,8.72,7.34,13.68c3.85,6.88,9.84,17.79,19.53,35.95
						c2.17-4.05,5.16-8.98,9.21-14.12c1.56-1.98,7.74-9.67,15.56-15.35C1142.12,2164.19,1150.67,2170.84,1161.41,2162.31z"/>
					
						<linearGradient id="SVGID_00000180335466064839950430000017021031868979276936_" gradientUnits="userSpaceOnUse" x1="521.4415" y1="1987.588" x2="518.2341" y2="2246.0002" gradientTransform="matrix(0.982 0.1887 -0.1887 0.982 983.7829 102.0635)">
						<stop  offset="0" style="stop-color:#FFC444"/>
						<stop  offset="0.9964" style="stop-color:#F36F56"/>
					</linearGradient>
					<path style="fill:url(#SVGID_00000180335466064839950430000017021031868979276936_);" d="M1085.65,2187.73
						c0,0,8.58,28.48,38.92,34.31c27.16,5.22,46.67-53.66,32.92-70.81c-4.59-5.72-15.53-10.45-25.47-10.27
						c-5.87,0.11-8.32,1.9-17.92,1.89c-8.86-0.01-10.96-1.54-14.01-0.08c-3.82,1.82-7.8,7.69-7.13,26.56
						c-3.75-6.49-9.35-10.06-14.22-9.14c-0.78,0.15-2.93,0.92-4.46,2.54C1068.76,2168.59,1072.73,2178.95,1085.65,2187.73z"/>
					
						<linearGradient id="SVGID_00000145741127189419960470000000312695619830701740_" gradientUnits="userSpaceOnUse" x1="904.6924" y1="2138.8228" x2="834.8861" y2="1961.5276" gradientTransform="matrix(-0.9687 -0.2485 -0.2485 0.9687 2456.1904 427.3052)">
						<stop  offset="0" style="stop-color:#311944"/>
						<stop  offset="1" style="stop-color:#6B3976"/>
					</linearGradient>
					<path style="fill:url(#SVGID_00000145741127189419960470000000312695619830701740_);" d="M1099.81,2138.87
						c1.04,1.3-4.15,5.08-6.22,11.8c-4.01,13.05,5.23,32.38,18.51,37.28c7.85,2.89,11.33-1.39,25.02,0.67
						c8.48,1.28,15.07,4.11,19.14,6.18c0.42,15.57-7.28,28.98-18.71,33.16c-12.3,4.5-24.47-3.34-29.56-6.62
						c-3.4-2.19-14.32-9.2-17.7-21.76c-3.53-13.09,4.64-18.3-0.81-27.96c-2.74-4.87-7.24-7.84-10.09-16.62
						c-0.77-2.39-1.17-4.42-1.39-5.78C1086.81,2143.72,1098.31,2136.99,1099.81,2138.87z"/>
					
						<linearGradient id="SVGID_00000167369165042934982240000007293656127001553048_" gradientUnits="userSpaceOnUse" x1="836.3704" y1="2031.9939" x2="840.0009" y2="2064.3589" gradientTransform="matrix(-0.9687 -0.2485 -0.2485 0.9687 2456.1904 427.3052)">
						<stop  offset="0" style="stop-color:#FFC444"/>
						<stop  offset="1" style="stop-color:#F36F56"/>
					</linearGradient>
					<path style="fill:url(#SVGID_00000167369165042934982240000007293656127001553048_);" d="M1145.18,2197.65
						c0,0-6.55,1.51-16.38-1.65c-0.48-0.16-1.05-0.15-1.18,0.08c-0.47,0.89,4.82,6.79,11.14,6.67c4.49-0.09,8.78-3.2,8.48-4.35
						C1147.11,2197.91,1146.15,2197.72,1145.18,2197.65z"/>
				</g>
			</g>
		</g>
		<g>
			<g>
				
					<linearGradient id="SVGID_00000007406343847459399260000009793757205846496910_" gradientUnits="userSpaceOnUse" x1="1137.8365" y1="1150.4124" x2="2013.576" y2="1150.4124" gradientTransform="matrix(1 0 0 1 918.7108 0)">
					<stop  offset="0" style="stop-color:#444B8C"/>
					<stop  offset="0.9964" style="stop-color:#26264F"/>
				</linearGradient>
				<path style="fill:url(#SVGID_00000007406343847459399260000009793757205846496910_);" d="M2932.29,1179.95
					c0,236.93-185.27,423.31-422.06,416.04c-246.43-7.57-453.68-220.4-453.68-475.08c0-254.69,207.25-439.57,453.68-413.91
					C2747.02,731.66,2932.29,943.02,2932.29,1179.95z"/>
				
					<linearGradient id="SVGID_00000093858032352124944590000005013072151278320036_" gradientUnits="userSpaceOnUse" x1="1838.7703" y1="690.1094" x2="1382.8275" y2="1696.0043" gradientTransform="matrix(1 0 0 1 918.7108 0)">
					<stop  offset="0" style="stop-color:#AA80F9"/>
					<stop  offset="0.9964" style="stop-color:#6165D7"/>
				</linearGradient>
				<path style="fill:url(#SVGID_00000093858032352124944590000005013072151278320036_);" d="M2996.27,1159.52
					c0,236.93-185.27,423.31-422.06,416.04c-246.43-7.57-453.68-220.4-453.68-475.08c0-254.69,207.26-439.57,453.68-413.91
					C2811.01,711.23,2996.27,922.59,2996.27,1159.52z"/>
				
					<linearGradient id="SVGID_00000076571743872662693260000008781955223526972329_" gradientUnits="userSpaceOnUse" x1="1356.9043" y1="1580.873" x2="1594.4534" y2="1203.5887" gradientTransform="matrix(1 0 0 1 918.7108 0)">
					<stop  offset="0" style="stop-color:#AA80F9"/>
					<stop  offset="0.9964" style="stop-color:#6165D7"/>
				</linearGradient>
				<path style="fill:url(#SVGID_00000076571743872662693260000008781955223526972329_);" d="M2977.69,1158.27
					c0,226.5-177.27,404.37-403.47,397.05c-234.98-7.61-432.28-210.72-432.28-453.39c0-242.67,197.29-419.18,432.28-395.1
					C2800.42,730,2977.69,931.77,2977.69,1158.27z"/>
				<path class="st39" d="M2958.1,1156.95c0,198.89-143.71,358.22-334.88,376.07c-16.06,1.51-32.52,2.01-49.19,1.46
					c-223.29-7.5-410.55-200.63-410.55-431.09c0-200.41,141.59-353.47,325.37-375.12c27.54-3.25,56.08-3.58,85.18-0.62
					C2789.21,749.42,2958.1,941.32,2958.1,1156.95z"/>
				
					<linearGradient id="SVGID_00000018220393312199781600000013936690982813038267_" gradientUnits="userSpaceOnUse" x1="1461.8669" y1="1025.4456" x2="1816.0853" y2="1777.3837" gradientTransform="matrix(1 0 0 1 918.7108 0)">
					<stop  offset="0" style="stop-color:#AA80F9"/>
					<stop  offset="0.9964" style="stop-color:#6165D7"/>
				</linearGradient>
				<path style="fill:url(#SVGID_00000018220393312199781600000013936690982813038267_);" d="M2623.22,1533.02
					c-16.06,1.51-32.52,2.01-49.19,1.46c-223.29-7.5-410.55-200.63-410.55-431.09c0-200.41,141.59-353.47,325.37-375.12
					c62.07,48.46,117.64,110.47,127.2,183.95c15.61,119.76-104.04,174.89-117.24,305.06
					C2487.96,1324.67,2539.39,1444.32,2623.22,1533.02z"/>
			</g>
			<g>
				<path class="st0" d="M2673.39,1236.4l-21.99-4.3c0.09-10.13-0.68-20.27-2.32-30.29l21.19-7.39c5.71-1.99,8.72-8.32,6.72-14.12
					l-12.53-36.39c-2.01-5.83-8.28-8.94-14.01-6.95l-21.28,7.39c-4.88-8.82-10.6-17.27-17.07-25.3l14.77-17.32
					c3.97-4.65,3.43-11.73-1.19-15.81l-28.99-25.58c-4.65-4.1-11.64-3.64-15.62,1.02l-14.81,17.37c-8.81-5.4-17.94-9.98-27.32-13.68
					l4.14-22.64c1.12-6.1-2.88-12.05-8.92-13.28l-37.87-7.71c-6.07-1.23-11.89,2.73-13,8.85l-4.11,22.67
					c-10.2-0.25-20.4,0.4-30.47,1.93l-7.72-21.89c-2.09-5.93-8.51-9.12-14.34-7.12l-36.51,12.5c-5.85,2-8.88,8.43-6.77,14.36
					l7.71,21.68c-8.86,4.91-17.33,10.68-25.35,17.24l-17.39-15.08c-4.76-4.13-11.88-3.67-15.89,1.04l-25.09,29.42
					c-4.01,4.7-3.39,11.86,1.38,15.97l17.3,14.91c-5.3,8.98-9.75,18.31-13.29,27.89l-22.11-4.33c-6.14-1.2-12,2.79-13.08,8.91
					l-6.76,38.23c-1.08,6.11,3.02,12.02,9.15,13.2l21.99,4.25c-0.03,10.39,0.87,20.76,2.65,31.01l-20.9,7.26
					c-5.84,2.03-8.85,8.42-6.73,14.27l13.29,36.53c2.12,5.83,8.56,8.91,14.39,6.88l20.68-7.22c5.11,8.94,11.08,17.49,17.82,25.57
					l-14.17,16.61c-3.98,4.66-3.37,11.69,1.36,15.7l29.49,25c4.71,3.99,11.73,3.45,15.7-1.2l14.12-16.56
					c9.01,5.32,18.33,9.8,27.89,13.36l-3.87,21.36c-1.09,6.01,2.92,11.78,8.94,12.9l37.61,6.98c6,1.11,11.75-2.84,12.85-8.83
					l3.92-21.46c10.21,0.09,20.4-0.7,30.44-2.39l7.32,20.61c2.04,5.74,8.33,8.74,14.06,6.72l35.75-12.65
					c5.71-2.02,8.7-8.3,6.68-14.04l-7.3-20.7c8.7-4.94,17.02-10.72,24.89-17.27l16.69,14.39c4.59,3.96,11.5,3.43,15.43-1.18
					l24.59-28.83c3.93-4.61,3.41-11.57-1.17-15.54l-16.78-14.56c5.16-8.81,9.52-17.94,13-27.33l21.74,4.2
					c5.93,1.15,11.65-2.78,12.77-8.77l7.01-37.5C2683.23,1243.37,2679.33,1237.56,2673.39,1236.4z M2562.85,1303.08
					c-39.89,46.77-110.35,52.07-157.65,11.62c-47.58-40.7-53.68-112.21-13.35-159.49c40.32-47.29,111.44-52.03,158.58-10.81
					C2597.29,1185.36,2602.74,1256.3,2562.85,1303.08z"/>
				<path class="st0" d="M2813.71,942.12l-12.24-2.42c-0.09-5.48-0.65-10.97-1.7-16.4l11.63-3.92c3.14-1.06,4.72-4.47,3.53-7.62
					l-7.44-19.72c-1.19-3.16-4.71-4.86-7.85-3.81l-11.68,3.92c-2.82-4.78-6.1-9.37-9.78-13.73l7.93-9.3
					c2.13-2.5,1.74-6.32-0.87-8.54l-16.37-13.9c-2.62-2.23-6.48-2-8.61,0.5l-7.95,9.32c-4.94-2.94-10.04-5.44-15.27-7.46l1.98-12.19
					c0.53-3.29-1.75-6.5-5.1-7.19l-20.99-4.26c-3.36-0.68-6.52,1.43-7.05,4.73l-1.97,12.2c-5.63-0.17-11.24,0.15-16.77,0.94
					l-4.53-11.81c-1.23-3.2-4.8-4.93-7.99-3.88l-19.94,6.62c-3.19,1.06-4.78,4.51-3.54,7.71l4.51,11.7
					c-4.82,2.61-9.41,5.7-13.74,9.2l-9.75-8.18c-2.67-2.24-6.57-2.01-8.72,0.51l-13.44,15.75c-2.15,2.52-1.72,6.37,0.95,8.61
					l9.69,8.09c-2.81,4.82-5.14,9.83-6.97,14.98l-12.21-2.41c-3.39-0.67-6.56,1.46-7.08,4.75l-3.26,20.58
					c-0.52,3.29,1.8,6.49,5.19,7.15l12.15,2.38c0.11,5.6,0.73,11.21,1.83,16.74l-11.42,3.83c-3.19,1.07-4.77,4.51-3.53,7.68
					l7.75,19.79c1.24,3.16,4.82,4.85,8,3.78l11.3-3.81c2.92,4.86,6.32,9.5,10.13,13.9l-7.6,8.92c-2.14,2.5-1.71,6.31,0.94,8.5
					l16.57,13.67c2.65,2.18,6.52,1.92,8.65-0.57l7.59-8.9c5.04,2.92,10.24,5.39,15.56,7.37l-1.87,11.55
					c-0.53,3.25,1.76,6.4,5.1,7.03l20.87,3.97c3.33,0.64,6.46-1.48,6.99-4.72l1.89-11.61c5.65,0.1,11.27-0.28,16.8-1.15l4.32,11.21
					c1.2,3.12,4.73,4.78,7.87,3.71l19.63-6.68c3.14-1.07,4.71-4.46,3.51-7.58l-4.32-11.26c4.75-2.64,9.28-5.73,13.55-9.24l9.44,7.88
					c2.6,2.17,6.42,1.92,8.54-0.57l13.24-15.52c2.12-2.48,1.73-6.26-0.86-8.43l-9.5-7.97c2.74-4.75,5.03-9.68,6.83-14.75l12.11,2.37
					c3.3,0.65,6.42-1.46,6.96-4.7l3.37-20.29C2819.26,945.94,2817.01,942.78,2813.71,942.12z M2753.4,977.76
					c-21.45,25.15-60.33,27.7-86.95,5.59c-26.74-22.2-30.98-60.83-9.36-86.18c21.62-25.36,60.77-27.67,87.34-5.27
					C2770.88,914.21,2774.85,952.61,2753.4,977.76z"/>
			</g>
		</g>
	</g>
</g>
</svg>
